<?xml version="1.0" encoding="utf-8"?>
<!-- Generator: Adobe Illustrator 19.1.0, SVG Export Plug-In . SVG Version: 6.00 Build 0)  -->
<svg version="1.1" id="Layer_1" xmlns="http://www.w3.org/2000/svg" xmlns:xlink="http://www.w3.org/1999/xlink" x="0px" y="0px"
	 viewBox="0 0 543.1 561.5" style="enable-background:new 0 0 543.1 561.5;" xml:space="preserve">
<style type="text/css">
	.st0{stroke:#FFFFFF;stroke-miterlimit:10;}
	.st1{fill:#FFFFFF;}
</style>
<g>
	<rect x="0.5" y="0.5" class="st0" width="542.1" height="560.5"/>
	<g>
		<path class="st1" d="M36.9,164.9h49.6l114.5,150.5V164.9h53.1v244.4h-45.7L90,253.9v155.4H36.9V164.9z"/>
		<path class="st1" d="M312.8,164.9h113.5c27.9,0,49.9,7.7,63.9,21.6c11.2,11.2,16.8,24.8,16.8,41.6v0.7c0,27.6-14.7,43-32.1,52.7
			c28.3,10.8,45.7,27.2,45.7,60.1v0.7c0,44.7-36.3,67-91.5,67H312.8V164.9z M453.5,237.2c0-16.1-12.6-25.1-35.3-25.1h-53.1v51.7
			h49.6c23.7,0,38.8-7.7,38.8-25.8V237.2z M427.3,308.4h-62.2v53.8h63.9c23.7,0,38.1-8.4,38.1-26.5v-0.7
			C467.1,318.5,454.9,308.4,427.3,308.4z"/>
	</g>
</g>
</svg>
